<svg xmlns="http://www.w3.org/2000/svg" enable-background="new 0 0 128 128" viewBox="0 0 128 128" id="network-server">
    <path fill="#a58b45" d="M83.1,112.6H50.3v-7.2c0-2.4-2-4.4-4.4-4.4c-2.4,0-4.4,2-4.4,4.4v7.2H9.8c-2.4,0-4.4,2-4.4,4.4
		c0,2.4,2,4.4,4.4,4.4h73.3c2.4,0,4.4-2,4.4-4.4C87.5,114.6,85.5,112.6,83.1,112.6z"></path>
    <path fill="#b0e9b3"
        d="M5.5 52.5h50.8c-3.6-3.6-5.7-8.6-5.7-13.8 0-5.2 2-10.1 5.7-13.8 1.6-1.6 3.5-2.9 5.6-3.9H5.5c-2.2 0-4 1.8-4 4v23.4C1.5 50.7 3.3 52.5 5.5 52.5zM21 30.5c0-1.1.9-2 2-2h4.4c1.1 0 2 .9 2 2v12.6c0 1.1-.9 2-2 2H23c-1.1 0-2-.9-2-2V30.5zM7.2 30.5c0-1.1.9-2 2-2h4.4c1.1 0 2 .9 2 2v12.6c0 1.1-.9 2-2 2H9.1c-1.1 0-2-.9-2-2V30.5zM87.4 62.7H5.5c-2.2 0-4 1.8-4 4v23.4c0 2.2 1.8 4 4 4h81.8c2.2 0 4-1.8 4-4V66.7C91.4 64.5 89.6 62.7 87.4 62.7zM15.4 84.7c0 1.1-.9 2-2 2H9.1c-1.1 0-2-.9-2-2V72.1c0-1.1.9-2 2-2h4.4c1.1 0 2 .9 2 2V84.7zM29.3 84.7c0 1.1-.9 2-2 2H23c-1.1 0-2-.9-2-2V72.1c0-1.1.9-2 2-2h4.4c1.1 0 2 .9 2 2V84.7zM84.1 82.5c-1.1 1.1-2.5 1.7-4.1 1.7-3.2 0-5.8-2.6-5.8-5.8 0-3.2 2.6-5.8 5.8-5.8 3.2 0 5.8 2.6 5.8 5.8C85.8 80 85.1 81.5 84.1 82.5z">
    </path>
    <path fill="#9ecaec" d="M112.7,25h-3.2c-0.7-4.9-3.1-9.4-6.7-12.8c-0.8-0.7-1.7-1.4-2.6-2c-3.5-2.3-7.6-3.6-11.9-3.6
		c-9.3,0-17.2,6-20.2,14.2c-0.5,1.4-0.9,3-1.1,4.5c-0.6,0.1-1.1,0.3-1.7,0.5c-1.9,0.7-3.6,1.8-5,3.2c-2.6,2.6-4,6.1-4,9.7
		c0,4.6,2.2,8.6,5.6,11.1c2.3,1.7,5.1,2.7,8.1,2.7h42.6c2.2,0,4.4-0.5,6.3-1.5c1.3-0.6,2.4-1.5,3.4-2.5c0.4-0.4,0.8-0.8,1.2-1.3
		c0,0,0,0,0,0c1.9-2.4,2.9-5.3,2.9-8.4C126.5,31.2,120.3,25,112.7,25z"></path>
</svg>